<svg fill="none" height="677" viewBox="0 0 1825 677" width="1825"
    xmlns="http://www.w3.org/2000/svg">
    <g clip-path="url(#clip0_13_58)">
        <rect fill="white" height="677" width="1825" />
        <path
            d="M1640.88 109.802C1692.27 92.5199 1748.7 114.18 1775.33 161.412L1801.24 207.382C1814.01 230.035 1834.21 247.59 1858.42 257.085L1907.55 276.352C1958.03 296.149 1987.33 349.011 1977.37 402.31L1967.67 454.185C1962.9 479.747 1967.08 506.176 1979.52 529.011L2004.78 575.351C2030.72 622.963 2019.19 682.293 1977.3 716.72L1936.52 750.226C1916.43 766.737 1902.65 789.673 1897.51 815.164L1887.06 866.893C1876.33 920.043 1829.36 958.079 1775.14 957.525L1722.37 956.985C1696.37 956.719 1671.07 965.431 1650.74 981.65L1609.49 1014.56C1567.11 1048.38 1506.67 1047.33 1465.5 1012.05L1425.42 977.717C1405.67 960.798 1380.69 951.209 1354.69 950.567L1301.94 949.265C1247.73 947.927 1202.12 908.275 1193.25 854.783L1184.61 802.721C1180.36 777.066 1167.39 753.663 1147.89 736.46L1108.31 701.551C1067.64 665.684 1058.19 605.988 1085.78 559.31L1112.63 513.88C1125.86 491.492 1130.97 465.226 1127.09 439.512L1119.21 387.331C1111.11 333.716 1142.24 281.909 1193.38 263.886L1243.15 246.345C1267.68 237.701 1288.48 220.862 1302.03 198.668L1329.54 153.631C1357.8 107.356 1414.94 87.6792 1465.7 106.744L1515.11 125.3C1539.45 134.443 1566.21 134.91 1590.86 126.622L1640.88 109.802Z"
            fill="#F1F2F4" fill-opacity="0.54" />
        <path
            d="M1641.51 111.698C1692 94.7215 1747.42 115.998 1773.58 162.394L1799.5 208.364C1812.5 231.418 1833.05 249.284 1857.69 258.946L1906.82 278.214C1956.4 297.661 1985.19 349.587 1975.4 401.943L1965.71 453.817C1960.85 479.832 1965.11 506.729 1977.77 529.968L2003.02 576.308C2028.5 623.078 2017.18 681.357 1976.03 715.174L1935.26 748.681C1914.81 765.484 1900.78 788.826 1895.55 814.769L1885.1 866.497C1874.56 918.707 1828.42 956.069 1775.16 955.525L1722.39 954.985C1695.93 954.715 1670.18 963.58 1649.49 980.087L1608.24 1013C1566.61 1046.22 1507.25 1045.18 1466.8 1010.53L1426.72 976.198C1406.62 958.98 1381.2 949.221 1354.74 948.568L1301.98 947.265C1248.74 945.951 1203.93 907.001 1195.22 854.455L1186.59 802.394C1182.26 776.284 1169.06 752.467 1149.21 734.96L1109.63 700.052C1069.69 664.818 1060.4 606.179 1087.5 560.327L1114.35 514.897C1127.82 492.114 1133.02 465.383 1129.07 439.214L1121.19 387.032C1113.24 334.367 1143.81 283.477 1194.05 265.773L1243.82 248.231C1268.78 239.434 1289.94 222.297 1303.74 199.711L1331.24 154.673C1359 109.218 1415.14 89.8889 1465 108.617L1514.4 127.172C1539.18 136.478 1566.41 136.953 1591.49 128.518L1641.51 111.698Z"
            stroke="#CCCCCC" stroke-opacity="0.28" stroke-width="4" />
        <path
            d="M129.889 -210.754C174.145 -225.635 222.733 -206.984 245.664 -166.312C256.662 -146.805 274.052 -131.689 294.899 -123.512C338.367 -106.465 363.599 -60.9457 355.021 -15.0492C350.908 6.96318 354.512 29.7208 365.227 49.3846C387.567 90.3841 377.637 141.473 341.564 171.118C324.263 185.336 312.396 205.086 307.965 227.037C298.724 272.805 258.278 305.558 211.589 305.08C189.197 304.851 167.411 312.353 149.907 326.319C113.409 355.44 61.3722 354.532 25.9134 324.155C8.90713 309.586 -12.6038 301.329 -34.9904 300.776C-81.6674 299.624 -120.946 265.479 -128.583 219.417C-132.246 197.325 -143.417 177.173 -160.211 162.36C-195.227 131.473 -203.368 80.0693 -179.611 39.8744C-168.216 20.5966 -163.82 -2.0214 -167.163 -24.1639C-174.133 -70.3318 -147.328 -114.943 -103.292 -130.463C-82.1718 -137.906 -64.2654 -152.407 -52.5934 -171.518C-28.257 -211.365 20.9525 -228.309 64.6622 -211.892C85.6258 -204.018 108.664 -203.616 129.889 -210.754Z"
            fill="#F3F4F6" />
        <circle cx="659.5" cy="988.5" fill="#F1F2F4" fill-opacity="0.55" r="477.5" />
        <path d="M988.525 101.815L965.708 185.358L904.767 123.827L988.525 101.815Z"
            fill="#F1F2F4" />
        <path
            d="M140.719 543.701C138.942 537.005 145.081 530.896 151.768 532.706L163.472 535.873C170.16 537.682 172.38 546.053 167.469 550.94L158.875 559.492C153.964 564.379 145.605 562.117 143.828 555.42L140.719 543.701Z"
            fill="#D0D1D4" />
        <rect fill="white" height="19" width="28" x="1330" y="92" />
        <path
            d="M592.492 413.155V273.469H625.927L663.053 366.593L703.051 273.469H733.819V413.155H704.692V327.62L671.873 406.18H655.054L621.619 328.44V413.155H592.492ZM792.603 413.155H764.502V317.774H792.603V413.155ZM778.45 302.39C773.732 302.39 770.04 300.954 766.963 297.878C763.887 294.801 762.451 291.109 762.451 286.391C762.451 281.673 764.092 277.776 767.169 274.699C770.245 271.622 773.938 270.187 778.655 270.187C783.168 270.187 787.065 271.622 790.142 274.699C793.219 277.776 794.655 281.673 794.655 286.186C794.655 290.904 793.219 294.596 790.142 297.673C787.065 300.749 783.168 302.39 778.45 302.39ZM860.197 416.231C844.403 416.231 832.506 411.719 824.506 402.693C816.506 393.873 812.404 381.566 812.404 365.772C812.404 350.183 816.301 337.671 823.891 328.44C831.48 319.21 843.172 314.697 859.171 314.697C865.94 314.697 872.094 315.518 877.632 317.364C883.17 319.21 888.708 322.697 894.452 327.62L879.683 346.901C876.196 343.824 873.119 341.568 870.043 340.132C866.966 338.901 864.094 338.286 861.222 338.286C854.043 338.286 848.915 340.748 845.633 345.876C842.146 351.003 840.505 357.567 840.505 365.567C840.505 374.797 842.351 381.566 846.044 385.874C849.531 390.386 854.659 392.643 861.222 392.643C865.12 392.643 868.607 391.822 871.889 390.386C874.965 388.95 878.042 386.489 881.119 383.002L896.913 399.617C892.195 405.565 886.657 409.668 880.709 412.334C874.76 415.001 867.786 416.231 860.197 416.231ZM941.015 413.155H912.709V317.774H938.144L938.349 333.158C941.015 328.03 945.118 324.133 950.656 321.056C956.194 318.184 962.143 316.749 968.912 316.749H973.014V343.414H965.014C957.835 343.414 952.092 345.876 947.784 350.798C943.272 355.926 941.015 362.695 941.015 371.105V413.155ZM1063.68 402.899C1055.68 411.719 1044.19 416.231 1029.43 416.231C1014.66 416.231 1003.17 411.719 995.17 402.899C987.171 394.078 983.068 381.566 983.068 365.362C983.068 349.363 987.171 336.85 995.17 328.03C1003.17 319.21 1014.66 314.697 1029.43 314.697C1044.19 314.697 1055.68 319.21 1063.68 328.03C1071.68 336.85 1075.78 349.363 1075.78 365.362C1075.78 381.566 1071.68 394.078 1063.68 402.899ZM1015.89 385.669C1018.96 390.386 1023.48 392.643 1029.43 392.643C1035.37 392.643 1039.89 390.386 1042.96 385.669C1046.04 380.951 1047.68 374.182 1047.68 365.362C1047.68 356.952 1046.04 350.388 1042.96 345.465C1039.89 340.748 1035.37 338.286 1029.43 338.286C1023.48 338.286 1018.96 340.748 1015.89 345.465C1012.81 350.388 1011.17 356.952 1011.17 365.362C1011.17 374.182 1012.81 380.951 1015.89 385.669ZM1155.08 416.436C1134.36 416.436 1118.57 410.078 1107.69 397.155C1096.82 384.438 1091.29 367.003 1091.29 344.645C1091.29 329.466 1093.75 316.338 1098.87 305.057C1103.8 293.98 1111.18 285.365 1120.82 279.212C1130.46 273.263 1142.36 270.187 1156.1 270.187C1164.51 270.187 1172.72 271.212 1180.51 273.058C1188.1 275.11 1196.31 278.597 1204.72 283.519L1190.15 306.288C1183.38 302.801 1177.44 300.544 1171.9 299.314C1166.36 298.083 1161.23 297.467 1156.31 297.467C1144.82 297.467 1136.21 301.365 1130.46 309.364C1124.51 317.364 1121.64 328.646 1121.64 343.619C1121.64 358.593 1124.51 369.874 1130.05 377.464C1135.59 385.053 1144.41 388.95 1156.92 388.95C1160 388.95 1163.28 388.745 1166.56 388.335C1169.85 388.13 1173.54 387.515 1177.44 386.489V359.003H1154.46L1162.46 334.594H1204.72V404.54C1201.02 407.206 1196.51 409.462 1190.97 411.308C1185.43 413.155 1179.69 414.385 1173.54 415.206C1167.18 416.026 1161.03 416.436 1155.08 416.436ZM1318.92 413.155H1288.98V273.469H1335.54C1352.15 273.469 1365.28 277.161 1374.72 284.34C1384.15 291.519 1388.87 302.185 1388.87 316.133C1388.87 325.774 1386.82 333.774 1382.51 340.337C1378.2 346.901 1371.84 351.824 1363.84 355.106L1395.64 413.155H1364.46L1335.95 360.029H1335.33H1318.92V413.155ZM1318.92 298.288V335.209H1334.92C1350.72 335.209 1358.51 329.466 1358.51 317.774C1358.51 304.852 1350.72 298.288 1334.92 298.288H1318.92ZM1446.72 384.643H1506V413.155H1416.77V273.469H1506V301.98H1446.72V328.646H1498.82L1490.41 355.106H1446.72V384.643Z"
            fill="black" />
        <g clip-path="url(#clip1_13_58)">
            <path
                d="M457.776 302.343C477.807 322.374 477.807 354.825 457.776 374.856C447.76 384.872 447.76 401.137 457.776 411.072C467.791 421.088 484.057 421.088 494.072 411.072C534.135 371.01 534.135 306.109 494.072 266.047L457.776 302.343Z"
                fill="#EA4335" />
            <path
                d="M493.992 266.047C453.93 225.984 389.109 225.984 349.047 266.047C308.984 306.109 308.984 371.01 349.047 411.072L385.343 374.856C365.312 354.825 365.312 322.374 385.343 302.343C405.374 282.312 437.825 282.312 457.856 302.343C467.872 312.359 484.137 312.359 494.152 302.343C504.008 292.328 504.008 276.062 493.992 266.047Z"
                fill="url(#paint0_linear_13_58)" />
            <path
                d="M493.992 411.072L457.696 374.856C437.664 394.887 405.214 394.887 385.183 374.856L348.886 411.072C389.109 451.134 453.93 451.134 493.992 411.072Z"
                fill="#FBBC04" />
            <path
                d="M457.776 374.856C467.791 364.84 483.977 364.84 493.992 374.856C504.008 384.872 504.008 401.137 493.992 411.152C483.977 421.168 467.791 421.168 457.776 411.152C447.76 401.137 447.76 384.872 457.776 374.856Z"
                fill="#EA4335" />
            <path
                d="M349.047 374.856C359.062 364.84 375.247 364.84 385.263 374.856C395.279 384.872 395.279 401.137 385.263 411.152C375.247 421.168 359.062 421.168 349.047 411.152C339.031 401.137 339.031 384.872 349.047 374.856Z"
                fill="#34A853" />
        </g>
    </g>
    <defs>
        <linearGradient gradientUnits="userSpaceOnUse" id="paint0_linear_13_58" x1="319" x2="18571.2" y1="8989.62"
            y2="8989.62">
            <stop stop-color="#246FDB" />
            <stop offset="0.0552" stop-color="#2973DF" />
            <stop offset="0.2781" stop-color="#377DEB" />
            <stop offset="0.5491" stop-color="#3F83F2" />
            <stop offset="1" stop-color="#4285F4" />
        </linearGradient>
        <clipPath id="clip0_13_58">
            <rect fill="white" height="677" width="1825" />
        </clipPath>
        <clipPath id="clip1_13_58">
            <rect fill="white" height="205.119" transform="translate(319 236)" width="205.119" />
        </clipPath>
    </defs>
</svg>
